HIERARCHY
ROOT hip
{
	OFFSET 0.000000 0.000000 0.000000 
	CHANNELS 6 Xposition Yposition Zposition Xrotation Zrotation Yrotation
	JOINT abdomen
	{
		OFFSET 0.000000 3.402643 0.000000 
		CHANNELS 3 Xrotation Zrotation Yrotation
		JOINT chest
		{
			OFFSET 0.000000 8.438565 -0.680529 
			CHANNELS 3 Xrotation Zrotation Yrotation
			JOINT neck
			{
				OFFSET 0.000000 10.207942 -0.272212 
				CHANNELS 3 Xrotation Zrotation Yrotation
				JOINT head
				{
					OFFSET 0.000000 3.130431 0.000000 
					CHANNELS 3 Xrotation Zrotation Yrotation
					End Site
					{
						OFFSET 0.000000 3.130435 0.000000 
					}
				}
			}
			JOINT lCollar
			{
				OFFSET 3.470700 6.669187 -0.816635 
				CHANNELS 3 Yrotation Zrotation Xrotation
				JOINT lShldr
				{
					OFFSET 3.198488 0.000000 0.000000 
					CHANNELS 3 Zrotation Yrotation Xrotation
					JOINT lForeArm
					{
						OFFSET 10.139888 0.000000 0.000000 
						CHANNELS 3 Yrotation Zrotation Xrotation
						JOINT lHand
						{
							OFFSET 8.370511 0.000000 0.000000 
							CHANNELS 3 Zrotation Yrotation Xrotation
							End Site
							{
								OFFSET 4.083176 0.000000 0.000000 
							}
						}
					}
				}
			}
			JOINT rCollar
			{
				OFFSET -3.470700 6.669187 -0.816635 
				CHANNELS 3 Yrotation Zrotation Xrotation
				JOINT rShldr
				{
					OFFSET -3.198488 0.000000 0.000000 
					CHANNELS 3 Zrotation Yrotation Xrotation
					JOINT rForeArm
					{
						OFFSET -10.139888 0.000000 0.000000 
						CHANNELS 3 Yrotation Zrotation Xrotation
						JOINT rHand
						{
							OFFSET -8.370511 0.000000 0.000000 
							CHANNELS 3 Zrotation Yrotation Xrotation
							End Site
							{
								OFFSET -4.083176 0.000000 0.000000 
							}
						}
					}
				}
			}
		}
	}
	JOINT lThigh
	{
		OFFSET 5.308129 -1.633274 1.361059 
		CHANNELS 3 Xrotation Zrotation Yrotation
		JOINT lShin
		{
			OFFSET -2.041588 -20.007561 0.000000 
			CHANNELS 3 Xrotation Zrotation Yrotation
			JOINT lFoot
			{
				OFFSET 0.000000 -19.190928 -1.224953 
				CHANNELS 3 Xrotation Yrotation Zrotation
				End Site
				{
					OFFSET 0.000000 -2.449906 4.627600 
				}
			}
		}
	}
	JOINT rThigh
	{
		OFFSET -5.308129 -1.633274 1.361059 
		CHANNELS 3 Xrotation Zrotation Yrotation
		JOINT rShin
		{
			OFFSET 2.041588 -20.007561 0.000000 
			CHANNELS 3 Xrotation Zrotation Yrotation
			JOINT rFoot
			{
				OFFSET 0.000000 -19.190928 -1.224953 
				CHANNELS 3 Xrotation Yrotation Zrotation
				End Site
				{
					OFFSET 0.000000 -2.449906 4.627600 
				}
			}
		}
	}
}
MOTION
Frames: 16
Frame Time: 0.033333
-0.008556 42.086277 0.476594 -0.089323 -10.273426 88.521530 0.000000 0.000000 0.000000 0.351708 -1.650360 6.073578 4.404869 0.920612 0.042431 -11.399762 -2.679795 -14.640301 -0.368568 21.501007 24.740572 -100.034317 -12.789124 -4.335214 -40.989243 -0.514823 26.169725 -4.703833 11.366213 49.397839 -12.408999 -16.313620 20.737076 73.181000 20.271202 70.195213 19.453442 -25.806715 -10.878292 26.273453 -1.047208 -10.033703 -8.319640 8.738528 19.749760 66.756691 10.160753 -0.585240 5.972477 -3.665823 -16.157751 -24.003178 2.665892 2.812750 33.182976 2.810769 2.617504 -11.632475 -13.534301 20.963415 
-0.132611 41.989975 0.874880 -0.566883 -10.907683 88.691170 0.000000 0.000000 0.000000 0.029308 -1.552734 6.102457 4.277719 0.756675 0.037628 -11.641977 -2.547345 -14.695682 0.022659 21.580250 24.576733 -99.995338 -13.344567 -4.350167 -41.031414 -0.375286 24.085043 -3.451126 10.702382 49.812202 -12.139940 -16.928942 20.680899 73.548851 20.897526 70.273422 20.580042 -26.966314 -11.077545 25.586832 -1.182849 -10.099556 -14.429985 10.356006 19.819334 72.194099 11.399394 -0.471738 7.495872 -2.598027 -15.630406 -24.187675 3.652441 3.109066 35.613583 3.314403 2.952648 -14.250093 -14.947169 18.673365 
-0.330554 41.964348 1.189133 -0.687689 -11.522630 88.661949 0.000000 0.000000 0.000000 -0.175859 -1.699211 6.079431 4.072406 0.474386 0.014751 -11.826487 -2.471080 -14.382654 0.547878 21.568310 24.363533 -100.058098 -13.807223 -4.306189 -41.220913 -0.295905 21.146513 -2.068934 10.008573 50.289890 -11.689026 -17.500748 20.695986 73.849701 21.656311 70.277985 21.580812 -28.122917 -11.208603 25.048058 -1.383383 -10.163012 -20.234615 11.387197 19.533596 74.459076 11.369523 -0.520401 7.405249 -2.040391 -14.859731 -23.918022 4.099362 3.245065 37.253979 3.640375 3.195055 -16.203857 -14.954035 18.341208 
-0.536130 42.005196 1.460265 -0.837891 -11.756590 88.499222 0.000000 0.000000 0.000000 0.000000 -1.787109 6.054687 3.876968 0.152971 -0.008721 -11.863293 -2.324066 -13.820724 1.072945 21.525127 24.156544 -100.069084 -14.150016 -4.297586 -41.389591 -0.233750 18.610369 -1.182436 9.561385 50.609570 -11.196766 -18.051823 20.742153 74.297813 22.521416 70.343132 22.218998 -28.986893 -11.211856 24.679865 -1.423123 -10.183196 -24.803881 12.313675 19.208797 73.607880 10.461235 -0.710893 6.894276 -2.411754 -14.365476 -22.954214 4.588270 3.342755 38.039825 3.991469 3.340157 -17.601091 -15.256542 17.533825 
-0.784309 42.090832 1.671413 -0.808370 -11.893382 88.456062 0.000000 0.000000 0.000000 0.293149 -2.011693 5.995232 3.720713 -0.119862 -0.026937 -11.753786 -2.188354 -13.504892 1.362096 21.800776 24.035070 -100.436234 -14.539613 -4.075647 -41.243580 0.063273 16.737089 -0.966637 9.349096 50.746822 -10.939389 -18.588617 20.712801 74.771225 23.280783 70.438553 22.876108 -29.724703 -10.916459 24.485367 -1.418940 -10.179274 -28.587782 12.787156 18.785002 69.607056 8.704409 -0.979851 6.301460 -3.197428 -14.547870 -21.629440 4.746360 3.302667 38.277996 4.407521 3.455728 -18.665844 -15.768217 16.843275 
-1.087265 42.167458 1.832110 -0.801508 -12.908937 88.382034 0.000000 0.000000 0.000000 -0.410429 -2.089790 6.001285 3.681717 -0.364965 -0.052231 -11.684116 -2.097723 -13.346022 1.675061 22.346739 23.877499 -100.975067 -14.624759 -3.769998 -41.067322 0.189365 15.673442 -0.927808 9.664450 50.797058 -10.763344 -19.080338 20.676819 75.161621 23.674561 70.572052 23.799530 -30.455240 -10.421999 24.432384 -1.938266 -10.233882 -32.427265 13.121357 18.220915 63.437035 6.156545 -1.352128 5.904387 -3.331865 -14.742434 -21.253607 4.949208 3.359481 38.392715 4.753004 3.530015 -19.714979 -16.349319 16.142162 
-1.359705 42.231945 1.954848 -0.855319 -13.953583 88.222466 0.000000 0.000000 0.000000 -1.270368 -2.079567 6.012873 3.701314 -0.501391 -0.061203 -11.643350 -1.969981 -13.179886 1.948766 22.671625 23.756327 -101.192268 -14.371407 -3.646567 -41.029606 0.389151 15.380221 -1.288538 9.877990 50.720699 -10.485940 -19.341530 20.725069 75.269638 23.797983 70.603882 24.682743 -31.218172 -9.336138 24.635046 -1.893348 -10.158911 -35.229660 13.375201 17.791672 56.022781 3.229549 -1.731188 5.292902 -2.570982 -14.861701 -20.805553 5.271431 3.460777 38.420502 4.870086 3.551480 -20.871531 -16.723934 16.191809 
-1.593078 42.287952 2.058955 -1.211830 -14.752703 87.984192 0.000000 0.000000 0.000000 -1.934494 -1.747051 6.103894 3.691597 -0.579359 -0.066161 -11.604385 -1.979640 -12.777466 2.233884 22.427994 23.649693 -100.780632 -13.901398 -3.891395 -41.076557 0.597455 15.426905 -2.149256 9.573502 50.514629 -10.211355 -19.359762 20.815454 75.247124 23.699226 70.619530 25.662033 -31.963226 -7.499910 24.635326 -1.903109 -10.110085 -36.849304 13.793832 17.610884 47.648659 0.367564 -1.999708 4.565110 -1.225645 -15.209918 -19.910543 5.937193 3.591051 38.321671 4.961607 3.582321 -22.040314 -17.043486 16.427727 
-1.806830 42.306568 2.122615 -2.018836 -15.713380 87.605583 0.000000 0.000000 0.000000 -2.773721 -0.819352 6.318987 3.545290 -0.823126 -0.079827 -11.563083 -1.796799 -12.396894 2.829371 21.892023 23.426746 -100.087059 -13.261076 -4.300784 -41.045380 0.573213 15.599491 -2.799175 9.291645 50.346306 -9.754150 -19.352964 20.981203 75.142395 23.527077 70.588486 26.234669 -32.618099 -6.113025 25.182211 -1.662944 -9.967558 -38.008125 14.502474 17.600567 39.491653 -2.062826 -2.146533 3.965868 0.556534 -16.339165 -19.245398 7.059726 3.892758 38.315689 5.108363 3.619613 -23.352922 -17.524961 15.608502 
-1.979385 42.290802 2.121281 -2.882667 -16.513422 87.176918 0.000000 0.000000 0.000000 -3.466819 0.204703 6.550098 3.320873 -1.049011 -0.099318 -11.470180 -1.293335 -12.105677 3.466048 21.246561 23.209488 -99.392517 -12.640231 -4.710193 -40.789566 0.637568 15.731601 -3.410872 9.178721 50.181911 -9.145243 -19.188843 21.232168 74.865768 23.315672 70.485733 26.520384 -33.096161 -5.227830 25.821594 -1.596553 -9.847406 -38.569736 15.094136 17.683167 32.149437 -3.971560 -2.160339 3.088576 2.474529 -17.876574 -18.326242 8.220286 4.221285 38.356186 5.104853 3.602655 -24.636982 -17.927794 15.112083 
-2.078377 42.263397 2.027625 -3.284539 -16.780586 86.768585 0.000000 0.000000 0.000000 -3.691661 0.672430 6.655837 3.018176 -1.137085 -0.098447 -11.221861 -0.606333 -11.988454 3.984393 20.631897 23.051102 -98.792290 -12.072910 -5.069919 -40.254532 0.996982 16.328970 -4.185234 9.037634 49.961628 -8.621125 -18.795338 21.484138 74.489479 23.147051 70.311165 26.583656 -33.209583 -4.833357 26.546360 -1.821591 -9.798917 -38.316341 14.977198 17.697378 26.227495 -5.214906 -2.086428 1.932053 4.368085 -19.320555 -16.548178 8.815427 4.306452 38.355289 4.825213 3.559854 -25.851831 -18.093151 15.447226 
-2.076890 42.239094 1.840929 -3.314455 -16.741100 86.208473 0.000000 0.000000 0.000000 -3.867555 0.789214 6.684934 3.145208 -1.185705 -0.103639 -11.113320 -0.110317 -11.737809 4.664085 19.810593 22.856287 -98.046478 -11.508167 -5.510918 -39.440285 1.623964 17.801195 -5.214027 9.127911 49.619431 -8.015900 -18.405153 21.750549 74.391693 23.014387 70.279343 26.273397 -33.176910 -4.623298 27.368629 -2.084011 -9.771581 -37.585354 14.558598 17.713751 22.988007 -5.706683 -1.973331 0.982836 5.567756 -20.560926 -14.115332 8.920835 4.252482 38.180286 4.294462 3.420478 -26.781616 -17.878780 16.589794 
-1.979155 42.231777 1.573673 -3.093900 -16.344604 85.488350 0.000000 0.000000 0.000000 -3.818687 0.750284 6.678442 3.506768 -1.302241 -0.118262 -11.113285 -0.018386 -11.243412 5.303225 18.792555 22.718779 -97.208244 -10.860642 -6.007497 -38.624359 2.438757 19.355688 -6.285119 9.295398 49.249920 -7.400385 -17.922047 22.034876 74.120819 22.861834 70.161980 25.998678 -33.086796 -4.254266 27.829111 -1.857834 -9.694082 -36.399746 13.998775 17.750998 21.858160 -5.785144 -1.904798 0.627989 6.052521 -20.736973 -11.185677 8.588659 4.041573 37.898926 3.663614 3.271414 -27.129414 -17.378260 18.375025 
-1.783950 42.235909 1.225800 -2.800452 -15.743829 84.498634 0.000000 0.000000 0.000000 -3.711354 0.857573 6.702194 3.888573 -1.767894 -0.149063 -11.123066 0.073540 -10.426762 5.976814 17.568548 22.610046 -96.292641 -10.033355 -6.573640 -37.925613 3.280910 20.888046 -7.473051 9.497285 48.830582 -6.678384 -17.468267 22.335407 73.713066 22.730349 69.961815 25.807623 -32.755451 -4.245738 28.168076 -1.820430 -9.676011 -34.882542 13.535000 17.901018 22.681999 -5.508671 -1.900301 0.402285 5.532872 -19.434669 -7.968066 7.948668 3.749438 37.594982 2.970292 3.085061 -26.824755 -16.486807 20.959799 
-1.522123 42.234890 0.771373 -2.123254 -15.009684 83.576401 0.000000 0.000000 0.000000 -3.545196 0.711527 6.664907 4.281072 -2.388832 -0.198116 -11.240640 0.358244 -9.689832 6.367338 16.409126 22.613550 -95.575813 -9.108295 -7.022011 -37.505684 4.303931 22.609343 -8.982649 9.410962 48.362274 -6.263548 -17.127960 22.516750 73.259636 22.557205 69.739731 25.693554 -32.510246 -3.783807 28.461668 -1.500964 -9.602174 -33.259338 12.498142 17.861485 24.260496 -4.854210 -1.884093 0.877554 4.062603 -17.048744 -4.859187 6.409942 3.191317 37.733200 2.423475 2.977729 -26.105795 -15.043997 24.147348 
-1.209532 42.214317 0.231081 -1.015890 -13.855328 83.045967 0.000000 0.000000 0.000000 -2.939459 0.117033 6.527194 4.518078 -3.037425 -0.240082 -11.553124 0.348366 -8.936466 6.274220 15.529661 22.741295 -95.182083 -8.306769 -7.293002 -37.247612 5.090398 23.777378 -9.887194 9.376207 48.055435 -6.219531 -16.939276 22.559069 72.909477 22.282974 69.600082 25.486065 -32.227299 -3.796195 28.603937 -1.351151 -9.580421 -31.664648 10.562344 17.533688 26.417627 -3.760762 -1.780931 1.327380 2.645401 -12.867372 -1.971829 3.866086 2.359995 38.817944 2.198554 3.032362 -24.711357 -13.250091 27.827639 
